HIERARCHY
ROOT Hips
{
	OFFSET 0.00000 0.00000 0.00000
	CHANNELS 6 Xposition Yposition Zposition Zrotation Yrotation Xrotation 
	JOINT LHipJoint
	{
		OFFSET 0 0 0
		CHANNELS 3 Zrotation Yrotation Xrotation
		JOINT LeftUpLeg
		{
			OFFSET 1.58895 -1.83665 0.71753
			CHANNELS 3 Zrotation Yrotation Xrotation
			JOINT LeftLeg
			{
				OFFSET 2.50528 -6.88321 0.00000
				CHANNELS 3 Zrotation Yrotation Xrotation
				JOINT LeftFoot
				{
					OFFSET 2.63244 -7.23257 0.00000
					CHANNELS 3 Zrotation Yrotation Xrotation
					JOINT LeftToeBase
					{
						OFFSET 0.23691 -0.65090 1.72750
						CHANNELS 3 Zrotation Yrotation Xrotation
						End Site
						{
							OFFSET 0.00000 -0.00000 0.92561
						}
					}
				}
			}
		}
	}
	JOINT RHipJoint
	{
		OFFSET 0 0 0
		CHANNELS 3 Zrotation Yrotation Xrotation
		JOINT RightUpLeg
		{
			OFFSET -1.51435 -1.83665 0.71753
			CHANNELS 3 Zrotation Yrotation Xrotation
			JOINT RightLeg
			{
				OFFSET -2.54551 -6.99375 0.00000
				CHANNELS 3 Zrotation Yrotation Xrotation
				JOINT RightFoot
				{
					OFFSET -2.66027 -7.30903 0.00000
					CHANNELS 3 Zrotation Yrotation Xrotation
					JOINT RightToeBase
					{
						OFFSET -0.22981 -0.63138 2.03959
						CHANNELS 3 Zrotation Yrotation Xrotation
						End Site
						{
							OFFSET -0.00000 -0.00000 1.07060
						}
					}
				}
			}
		}
	}
	JOINT LowerBack
	{
		OFFSET 0 0 0
		CHANNELS 3 Zrotation Yrotation Xrotation
		JOINT Spine
		{
			OFFSET -0.02651 1.86275 -0.11152
			CHANNELS 3 Zrotation Yrotation Xrotation
			JOINT Spine1
			{
				OFFSET 0.01019 1.86224 0.04087
				CHANNELS 3 Zrotation Yrotation Xrotation
				JOINT Neck
				{
					OFFSET 0 0 0
					CHANNELS 3 Zrotation Yrotation Xrotation
					JOINT Neck1
					{
						OFFSET -0.01926 1.80512 0.08867
						CHANNELS 3 Zrotation Yrotation Xrotation
						JOINT Head
						{
							OFFSET 0.05516 1.76451 -0.38475
							CHANNELS 3 Zrotation Yrotation Xrotation
							End Site
							{
								OFFSET 0.01592 1.82587 -0.14001
							}
						}
					}
				}
				JOINT LeftShoulder
				{
					OFFSET 0 0 0
					CHANNELS 3 Zrotation Yrotation Xrotation
					JOINT LeftArm
					{
						OFFSET 3.47116 1.51376 0.14491
						CHANNELS 3 Zrotation Yrotation Xrotation
						JOINT LeftForeArm
						{
							OFFSET 4.78095 -0.00000 0.00000
							CHANNELS 3 Zrotation Yrotation Xrotation
							JOINT LeftHand
							{
								OFFSET 3.58615 -0.00000 -0.00000
								CHANNELS 3 Zrotation Yrotation Xrotation
								JOINT LeftFingerBase
								{
									OFFSET 0 0 0
									CHANNELS 3 Zrotation Yrotation Xrotation
									JOINT LeftHandIndex1
									{
										OFFSET 0.65981 -0.00000 0.00000
										CHANNELS 3 Zrotation Yrotation Xrotation
										End Site
										{
											OFFSET 0.53196 -0.00000 0.00000
										}
									}
								}
								JOINT LThumb
								{
									OFFSET 0 0 0
									CHANNELS 3 Zrotation Yrotation Xrotation
									End Site
									{
										OFFSET 0.54008 -0.00000 0.54008
									}
								}
							}
						}
					}
				}
				JOINT RightShoulder
				{
					OFFSET 0 0 0
					CHANNELS 3 Zrotation Yrotation Xrotation
					JOINT RightArm
					{
						OFFSET -3.31725 1.61216 0.35156
						CHANNELS 3 Zrotation Yrotation Xrotation
						JOINT RightForeArm
						{
							OFFSET -4.48913 -0.00000 0.00000
							CHANNELS 3 Zrotation Yrotation Xrotation
							JOINT RightHand
							{
								OFFSET -3.70510 -0.00000 0.00000
								CHANNELS 3 Zrotation Yrotation Xrotation
								JOINT RightFingerBase
								{
									OFFSET 0 0 0
									CHANNELS 3 Zrotation Yrotation Xrotation
									JOINT RightHandIndex1
									{
										OFFSET -0.44914 -0.00000 0.00000
										CHANNELS 3 Zrotation Yrotation Xrotation
										End Site
										{
											OFFSET -0.36211 -0.00000 0.00000
										}
									}
								}
								JOINT RThumb
								{
									OFFSET 0 0 0
									CHANNELS 3 Zrotation Yrotation Xrotation
									End Site
									{
										OFFSET -0.36763 -0.00000 0.36763
									}
								}
							}
						}
					}
				}
			}
		}
	}
}
MOTION
Frames: 14
Frame Time: .0083333
-0.6728 18.6389 6.3122 0 0 0 0 0 0 -21 0 0 0 0 0 0 0 0 0 0 0 0 0 0 21 0 0 0 0 0 0 0 0 0 0 0 0 0 0 0 0 0 0 0 0 0 0 -16 0 0 21 0 0 11 0 0 0 -8 0 0 0 0 0 0 0 0 0 0 0 0 0 0 0 0 0 0 0 0 8 0 0 0 0 0 0 0 0 0 0 0 0 0 0 0 0 0
-0.6728 18.6389 6.3122 -3.1902 -2.0254 -0.6334 0.0000 0.0000 0.0000 -12.2261 -3.1814 -1.8986 1.6294 8.0472 22.8577 1.8385 3.3236 -26.9838 8.1428 -16.2233 -53.0755 0.0000 0.0000 0.0000 18.0956 -0.5091 11.3038 0.0000 -0.0000 0.0000 -1.4038 -6.2031 -25.3880 -0.0063 0.5105 -1.4029 2.3217 1.1153 8.9552 0.3801 1.7834 -1.8882 -1.1702 0.7863 -6.9580 0.0150 -1.7879 -10.8973 1.4503 -2.8696 23.5731 0.1761 -1.1855 9.2161 0.0000 -0.0000 0.0000 -94.0889 12.9013 20.1685 21.7918 -32.7409 -6.4729 -0.0000 -0.0000 1.1406 8.9076 -21.0288 -3.2190 -7.1250 0.0000 -0.0000 -12.5134 9.1163 10.6365 0.0000 -0.0000 0.0000 94.2845 -22.7617 17.3424 -24.7121 35.9083 -8.1205 0.0000 0.0000 3.9456 -13.6311 -32.3967 7.4028 7.1250 -0.0000 -0.0000 22.0722 -61.7670 -9.2523
-0.6727 18.6377 6.3126 -3.1878 -2.0278 -0.6095 0.0000 0.0000 0.0000 -12.2178 -3.1438 -1.9234 1.6286 8.0454 22.8521 1.8431 3.2249 -26.9707 8.1201 -16.2069 -52.9943 0.0000 0.0000 0.0000 18.0931 -0.4987 11.2801 0.0000 0.0000 -0.0000 -1.4022 -6.2288 -25.3916 -0.0087 0.6027 -1.6563 2.2981 1.1165 8.9089 0.3886 1.7815 -1.8859 -1.1466 0.7870 -6.9300 0.0224 -1.7855 -10.8752 1.4416 -2.8643 23.5215 0.1729 -1.1840 9.1937 -0.0000 0.0000 0.0000 -93.9992 13.0925 20.5991 22.0192 -32.9987 -6.5963 -0.0000 -0.0000 0.7337 8.9988 -20.8391 -3.2245 -7.1250 0.0000 -0.0000 -12.4554 9.2945 10.5391 -0.0000 0.0000 0.0000 94.2704 -22.7141 17.3259 -24.6524 35.8465 -8.0854 0.0000 0.0000 3.9453 -13.7630 -32.2352 7.4435 7.1250 -0.0000 -0.0000 21.7887 -61.6515 -9.0674
-0.6728 18.6381 6.3136 -3.1797 -2.0270 -0.6067 0.0000 0.0000 0.0000 -12.2216 -3.1276 -1.9440 1.6314 8.0520 22.8720 1.8432 3.2268 -26.9717 8.1442 -16.2243 -53.0803 0.0000 0.0000 0.0000 18.0855 -0.4991 11.2785 0.0000 0.0000 -0.0000 -1.4072 -6.2102 -25.4178 -0.0082 0.5847 -1.6068 2.2153 1.1120 8.8181 0.4286 1.7651 -1.8353 -1.0528 0.7851 -6.8283 0.0126 -1.7770 -10.8864 1.4233 -2.8447 23.4715 0.1705 -1.1781 9.1780 0.0000 0.0000 0.0000 -93.8659 13.4529 21.3697 22.4958 -33.5329 -6.8578 -0.0000 0.0000 -0.0375 9.0766 -20.4631 -3.1967 -7.1250 0.0000 -0.0000 -12.4056 9.6574 10.4021 0.0000 0.0000 0.0000 94.1907 -22.6254 17.3944 -24.5959 35.7880 -8.0524 0.0000 0.0000 3.8628 -14.0731 -32.0645 7.5804 7.1250 -0.0000 -0.0000 21.3081 -61.5712 -8.8165
-0.6735 18.6389 6.3139 -3.1833 -2.0112 -0.6283 0.0000 0.0000 0.0000 -12.2232 -3.1491 -1.9269 1.6314 8.0521 22.8723 1.8350 3.3284 -26.9619 8.1845 -16.2533 -53.2244 0.0000 0.0000 0.0000 18.0912 -0.5235 11.3006 0.0000 -0.0000 0.0000 -1.4221 -6.1376 -25.4855 -0.0048 0.4461 -1.2258 2.4157 1.1537 9.2870 0.2877 1.8545 -2.1438 -1.3435 0.8058 -7.4130 0.0399 -1.8475 -10.6365 1.5468 -2.9821 23.6578 0.1949 -1.2265 9.1989 0.0000 -0.0000 0.0000 -93.5029 14.1965 21.9661 22.7842 -33.8520 -7.0177 -0.0000 0.0000 -0.4409 9.0638 -20.2899 -3.1663 -7.1250 0.0000 -0.0000 -12.4137 9.8289 10.3652 0.0000 -0.0000 0.0000 94.5335 -23.1368 17.1215 -24.6564 35.8507 -8.0878 0.0000 0.0000 3.8305 -14.2473 -31.9659 7.6563 7.1250 -0.0000 -0.0000 21.0366 -61.5233 -8.6745
-0.6733 18.6380 6.3146 -3.2117 -2.0138 -0.6285 0.0000 0.0000 0.0000 -12.2110 -3.2184 -1.8897 1.6310 8.0511 22.8694 1.8435 3.3584 -27.0343 8.1555 -16.2324 -53.1208 0.0000 0.0000 0.0000 18.1205 -0.5229 11.3056 0.0000 0.0000 -0.0000 -1.4259 -6.1177 -25.5021 -0.0034 0.3765 -1.0344 2.5252 1.1680 9.4437 0.2386 1.8906 -2.2580 -1.4685 0.8129 -7.6193 0.0581 -1.8696 -10.5326 1.5862 -3.0269 23.7075 0.2013 -1.2418 9.1975 -0.0000 -0.0000 0.0000 -93.4053 14.3901 22.0259 22.8013 -33.8708 -7.0272 -0.0000 0.0000 -0.4400 9.0934 -20.2922 -3.1772 -7.1250 0.0000 -0.0000 -12.3948 9.8240 10.3499 -0.0000 -0.0000 0.0000 94.6822 -23.3300 16.9934 -24.7017 35.8975 -8.1144 0.0000 0.0000 3.8555 -14.2382 -31.9315 7.6439 7.1250 -0.0000 -0.0000 21.0170 -61.4893 -8.6491
-0.6730 18.6379 6.3155 -3.2266 -2.0187 -0.6128 0.0000 0.0000 0.0000 -12.1981 -3.2428 -1.8746 1.6290 8.0464 22.8551 1.8537 3.3067 -27.0806 8.1187 -16.2059 -52.9893 0.0000 0.0000 0.0000 18.1360 -0.5134 11.2916 0.0000 0.0000 -0.0000 -1.4134 -6.1869 -25.4500 -0.0051 0.4604 -1.2651 2.5610 1.1685 9.4467 0.2293 1.8956 -2.2813 -1.4996 0.8128 -7.6445 0.0837 -1.8658 -10.5208 1.5607 -3.0212 23.7334 0.1890 -1.2394 9.2034 0.0000 -0.0000 0.0000 -93.3883 14.4263 22.0365 22.8080 -33.8781 -7.0310 -0.0000 0.0000 -0.4453 9.1720 -20.2830 -3.2036 -7.1250 0.0000 -0.0000 -12.3449 9.8262 10.3056 0.0000 -0.0000 0.0000 94.7311 -23.3669 16.9431 -24.7285 35.9251 -8.1300 0.0000 0.0000 3.8610 -14.2366 -31.9770 7.6527 7.1250 -0.0000 -0.0000 21.0575 -61.5309 -8.6874
-0.6740 18.6383 6.3160 -3.1851 -2.0170 -0.6096 0.0000 0.0000 0.0000 -12.2278 -3.2073 -1.8782 1.6262 8.0398 22.8351 1.8525 3.2490 -27.0458 8.1120 -16.2010 -52.9650 0.0000 0.0000 0.0000 18.0934 -0.5141 11.2897 0.0000 -0.0000 0.0000 -1.4056 -6.2240 -25.4142 -0.0084 0.5918 -1.6263 2.5132 1.1722 9.4644 0.2107 1.8939 -2.2924 -1.4928 0.8132 -7.6674 0.1220 -1.8645 -10.5670 1.5088 -3.0169 23.8142 0.1644 -1.2384 9.2388 0.0000 0.0000 0.0000 -93.3839 14.4259 22.0016 22.7927 -33.8613 -7.0224 -0.0000 0.0000 -0.4023 9.2150 -20.3104 -3.2231 -7.1250 0.0000 -0.0000 -12.3176 9.7954 10.2895 0.0000 0.0000 0.0000 94.7636 -23.3771 16.9337 -24.7430 35.9402 -8.1386 0.0000 0.0000 3.8397 -14.2610 -32.0422 7.6800 7.1250 -0.0000 -0.0000 21.0871 -61.5972 -8.7334
-0.6752 18.6376 6.3170 -3.1530 -2.0195 -0.5954 0.0000 0.0000 0.0000 -12.2505 -3.1668 -1.9042 1.6250 8.0369 22.8262 1.8447 3.2488 -26.9925 8.1241 -16.2097 -53.0083 0.0000 0.0000 0.0000 18.0620 -0.5092 11.2827 0.0000 0.0000 -0.0000 -1.4124 -6.1778 -25.4370 -0.0078 0.5693 -1.5644 2.4538 1.1767 9.4442 0.2053 1.8916 -2.2910 -1.4641 0.8149 -7.6558 0.1548 -1.8716 -10.6156 1.4521 -3.0215 23.8665 0.1383 -1.2427 9.2647 -0.0000 -0.0000 0.0000 -93.3976 14.3945 21.9144 22.7608 -33.8262 -7.0047 -0.0000 0.0000 -0.3000 9.1964 -20.3438 -3.2215 -7.1250 0.0000 -0.0000 -12.3295 9.7642 10.3079 -0.0000 -0.0000 0.0000 94.7657 -23.3535 16.9488 -24.7266 35.9233 -8.1290 0.0000 0.0000 3.8055 -14.2898 -32.0244 7.6922 7.1250 -0.0000 -0.0000 21.0408 -61.5879 -8.7086
-0.6751 18.6379 6.3188 -3.1717 -2.0221 -0.5575 0.0000 0.0000 0.0000 -12.2193 -3.1195 -1.9609 1.6251 8.0371 22.8268 1.8412 3.2294 -26.9592 8.1347 -16.2174 -53.0463 0.0000 0.0000 0.0000 18.0840 -0.4969 11.2514 0.0000 0.0000 -0.0000 -1.4191 -6.1460 -25.4679 -0.0049 0.4520 -1.2421 2.4434 1.1751 9.3898 0.2223 1.8879 -2.2944 -1.4383 0.8145 -7.6292 0.2147 -1.8726 -10.5587 1.3814 -3.0161 23.8133 0.1054 -1.2435 9.2331 -0.0000 0.0000 0.0000 -93.4259 14.4106 21.8382 22.8238 -33.8955 -7.0398 -0.0000 0.0000 -0.2370 9.0994 -20.2856 -3.1783 -7.1250 0.0000 -0.0000 -12.3911 9.8300 10.3451 -0.0000 0.0000 0.0000 94.7638 -23.3216 16.9310 -24.7060 35.9019 -8.1169 0.0000 0.0000 3.8065 -14.3261 -31.9406 7.6945 7.1250 -0.0000 -0.0000 20.9303 -61.5194 -8.6266
-0.6752 18.6392 6.3200 -3.2064 -2.0379 -0.5269 0.0000 0.0000 0.0000 -12.1726 -3.0842 -2.0036 1.6256 8.0383 22.8304 1.8451 3.1791 -26.9631 8.1295 -16.2137 -53.0279 0.0000 0.0000 0.0000 18.1239 -0.4723 11.2254 0.0000 0.0000 -0.0000 -1.4166 -6.1492 -25.4512 -0.0035 0.3837 -1.0542 2.4557 1.1772 9.3642 0.2417 1.8931 -2.3060 -1.4250 0.8169 -7.6269 0.2563 -1.8693 -10.4439 1.3440 -3.0075 23.7220 0.0882 -1.2417 9.1782 -0.0000 0.0000 0.0000 -93.4615 14.4962 21.7934 23.0507 -34.1442 -7.1667 -0.0000 0.0000 -0.2351 8.9368 -20.1232 -3.0968 -7.1250 0.0000 -0.0000 -12.4946 10.0039 10.3909 -0.0000 0.0000 0.0000 94.7751 -23.3061 16.8969 -24.6960 35.8916 -8.1110 0.0000 0.0000 3.8494 -14.2924 -31.8597 7.6587 7.1250 -0.0000 -0.0000 20.8979 -61.4362 -8.5713
-0.6755 18.6386 6.3199 -3.2227 -2.0443 -0.5305 0.0000 0.0000 0.0000 -12.1585 -3.0915 -1.9989 1.6266 8.0407 22.8379 1.8436 3.2046 -26.9646 8.1388 -16.2204 -53.0611 0.0000 0.0000 0.0000 18.1426 -0.4671 11.2293 0.0000 0.0000 -0.0000 -1.4129 -6.1515 -25.4247 -0.0043 0.4230 -1.1623 2.4572 1.1728 9.3885 0.2584 1.8895 -2.3099 -1.4085 0.8152 -7.6459 0.2184 -1.8745 -10.4084 1.3593 -3.0098 23.6968 0.1000 -1.2450 9.1636 -0.0000 0.0000 0.0000 -93.4809 14.4641 21.8000 22.9017 -33.9811 -7.0832 -0.0000 0.0000 -0.3015 9.0321 -20.3023 -3.1569 -7.1250 0.0000 -0.0000 -12.4338 9.8195 10.3853 -0.0000 0.0000 0.0000 94.7557 -23.2943 16.9177 -24.6865 35.8819 -8.1055 0.0000 0.0000 3.8492 -14.1890 -31.8219 7.5936 7.1250 -0.0000 -0.0000 20.9769 -61.3758 -8.5752
-0.6754 18.6372 6.3197 -3.2237 -2.0316 -0.5472 0.0000 0.0000 0.0000 -12.1691 -3.1536 -1.9561 1.6274 8.0425 22.8434 1.8450 3.2429 -26.9918 8.1282 -16.2127 -53.0230 0.0000 0.0000 0.0000 18.1453 -0.4851 11.2426 0.0000 0.0000 -0.0000 -1.4101 -6.1887 -25.4267 -0.0072 0.5480 -1.5059 2.4659 1.1641 9.4294 0.2589 1.8802 -2.3097 -1.4125 0.8098 -7.6694 0.2136 -1.8851 -10.4176 1.3517 -3.0224 23.7116 0.0967 -1.2520 9.1705 0.0000 0.0000 0.0000 -93.5063 14.5256 21.7543 23.0555 -34.1495 -7.1694 -0.0000 0.0000 -0.2435 8.9567 -20.2004 -3.1152 -7.1250 0.0000 -0.0000 -12.4818 9.9263 10.3999 0.0000 0.0000 0.0000 94.7546 -23.2958 16.9468 -24.6950 35.8906 -8.1104 0.0000 0.0000 3.7969 -14.1924 -31.8757 7.6068 7.1250 -0.0000 -0.0000 21.0187 -61.4264 -8.6184
-0.6757 18.6380 6.3208 -3.2288 -2.0310 -0.5489 0.0000 0.0000 0.0000 -12.1686 -3.2015 -1.9308 1.6276 8.0431 22.8451 1.8505 3.2538 -27.0347 8.1153 -16.2034 -52.9770 0.0000 0.0000 0.0000 18.1530 -0.4879 11.2479 0.0000 0.0000 -0.0000 -1.4097 -6.2165 -25.4405 -0.0082 0.5835 -1.6035 2.4981 1.1747 9.4398 0.2410 1.8974 -2.3155 -1.4525 0.8161 -7.6793 0.2268 -1.9052 -10.4186 1.3573 -3.0553 23.7342 0.0927 -1.2653 9.1787 -0.0000 -0.0000 0.0000 -93.4491 14.4762 21.8207 22.8236 -33.8953 -7.0397 -0.0000 0.0000 -0.2672 9.0640 -20.3339 -3.1729 -7.1250 0.0000 -0.0000 -12.4136 9.7856 10.3762 -0.0000 -0.0000 0.0000 94.8224 -23.3211 16.9034 -24.7203 35.9167 -8.1253 0.0000 0.0000 3.7379 -14.3237 -31.9422 7.6935 7.1250 -0.0000 -0.0000 20.9343 -61.5203 -8.6288
